<svg width="100" height="100" viewBox="0 0 100 100" fill="none" xmlns="http://www.w3.org/2000/svg">
<circle cx="50" cy="50" r="50" fill="#EB5757"/>
<g clip-path="url(#clip0_15_2)">
<path d="M35.401 40.1633C36.4455 39.4333 38.0199 39.5733 38.9577 40.3478L37.8821 38.7844C37.0166 37.55 37.3266 36.2144 38.5621 35.3478C39.7977 34.4844 43.2988 36.8056 43.2988 36.8056C42.4255 35.5589 42.5888 33.9789 43.8355 33.1044C45.0821 32.2333 46.8021 32.5344 47.6755 33.7833L59.2533 50.1389L57.7777 64.4444L45.4633 59.9533L34.7221 44.0278C33.841 42.7733 34.1455 41.0433 35.401 40.1633Z" fill="#EF9645"/>
<path d="M32.9944 49.2622C32.9944 49.2622 31.7366 47.4289 33.571 46.1722C35.4032 44.9156 36.6599 46.7478 36.6599 46.7478L42.4944 55.2567C42.6955 54.9211 42.9155 54.59 43.161 54.2633L35.0632 42.4556C35.0632 42.4556 33.8066 40.6233 35.6399 39.3667C37.4721 38.11 38.7288 39.9422 38.7288 39.9422L46.3455 51.05C46.6288 50.8189 46.9188 50.5867 47.2177 50.3589L38.3877 37.48C38.3877 37.48 37.131 35.6478 38.9644 34.3911C40.7966 33.1344 42.0532 34.9667 42.0532 34.9667L50.8832 47.8433C51.2077 47.6444 51.5288 47.4722 51.851 47.29L43.5977 35.2544C43.5977 35.2544 42.341 33.4222 44.1732 32.1656C46.0055 30.9089 47.2621 32.7411 47.2621 32.7411L55.9888 45.4678L57.3155 47.4033C51.8177 51.1744 51.2944 58.2689 54.4355 62.85C55.0632 63.7667 55.9799 63.1389 55.9799 63.1389C52.2099 57.64 53.361 51.4611 58.8599 47.6911L57.2388 39.5778C57.2388 39.5778 56.6332 37.44 58.7699 36.8333C60.9077 36.2278 61.5144 38.3656 61.5144 38.3656L63.3866 43.9256C64.1288 46.13 64.9188 48.3267 65.9644 50.4044C68.9166 56.2711 67.1532 63.5622 61.5866 67.3811C55.5144 71.5444 47.2132 69.9967 43.0488 63.9256L32.9944 49.2622Z" fill="#FFDC5D"/>
<path d="M43.3333 65.6022C38.8889 65.6022 34.3978 61.1111 34.3978 56.6667C34.3978 56.0522 33.9478 55.5556 33.3333 55.5556C32.7189 55.5556 32.1755 56.0522 32.1755 56.6667C32.1755 63.3333 36.6666 67.8244 43.3333 67.8244C43.9478 67.8244 44.4444 67.2811 44.4444 66.6667C44.4444 66.0522 43.9478 65.6022 43.3333 65.6022Z" fill="#5DADEC"/>
<path d="M37.7778 67.7778C34.4444 67.7778 32.2222 65.5556 32.2222 62.2222C32.2222 61.6078 31.7256 61.1111 31.1111 61.1111C30.4967 61.1111 30 61.6078 30 62.2222C30 66.6667 33.3333 70 37.7778 70C38.3922 70 38.8889 69.5033 38.8889 68.8889C38.8889 68.2744 38.3922 67.7778 37.7778 67.7778ZM56.6667 32.2222C56.0533 32.2222 55.5556 32.72 55.5556 33.3333C55.5556 33.9467 56.0533 34.4444 56.6667 34.4444C61.1111 34.4444 65.5556 38.4322 65.5556 43.3333C65.5556 43.9467 66.0533 44.4444 66.6667 44.4444C67.28 44.4444 67.7778 43.9467 67.7778 43.3333C67.7778 37.2067 63.3333 32.2222 56.6667 32.2222Z" fill="#5DADEC"/>
<path d="M62.2222 30.0467C61.6089 30.0467 61.1111 30.4978 61.1111 31.1111C61.1111 31.7244 61.6089 32.2689 62.2222 32.2689C65.5555 32.2689 67.7311 34.7411 67.7311 37.7778C67.7311 38.3911 68.2744 38.8889 68.8889 38.8889C69.5033 38.8889 69.9533 38.3911 69.9533 37.7778C69.9533 33.5144 66.6666 30.0467 62.2222 30.0467Z" fill="#5DADEC"/>
</g>
<defs>
<clipPath id="clip0_15_2">
<rect width="40" height="40" fill="white" transform="translate(30 30)"/>
</clipPath>
</defs>
</svg>
